<?xml version="1.0" encoding="utf-8"?>
<!-- Generator: Adobe Illustrator 15.0.0, SVG Export Plug-In . SVG Version: 6.00 Build 0)  -->
<!DOCTYPE svg PUBLIC "-//W3C//DTD SVG 1.1//EN" "http://www.w3.org/Graphics/SVG/1.1/DTD/svg11.dtd">
<svg version="1.1" id="レイヤー_1" xmlns="http://www.w3.org/2000/svg" xmlns:xlink="http://www.w3.org/1999/xlink" x="0px"
	 y="0px" width="265px" height="94px" viewBox="11.232 16.366 265 94" enable-background="new 11.232 16.366 265 94"
	 xml:space="preserve">
<g>
	
		<radialGradient id="SVGID_1_" cx="52.1997" cy="141.573" r="107.9115" gradientTransform="matrix(1 0 0 -1 -0.0552 141.5913)" gradientUnits="userSpaceOnUse">
		<stop  offset="0" style="stop-color:#7ACDF3"/>
		<stop  offset="0.1311" style="stop-color:#73C8F2"/>
		<stop  offset="0.2922" style="stop-color:#61BBEA"/>
		<stop  offset="0.4689" style="stop-color:#3EA5DE"/>
		<stop  offset="0.6569" style="stop-color:#0089CD"/>
		<stop  offset="0.8518" style="stop-color:#006AB8"/>
		<stop  offset="0.8652" style="stop-color:#0068B7"/>
		<stop  offset="1" style="stop-color:#00479D"/>
	</radialGradient>
	<path fill="url(#SVGID_1_)" d="M19.565,47.462c0,16.718,15.504,20.887,30.67,22.761c16.962,2.119,19.138,7.984,19.138,12.855
		c0,6.068-8.36,11.394-17.89,11.394c-7.633,0-12.753-2.562-16.867-4.619c-2.789-1.396-5.198-2.601-7.676-2.601
		c-4.412,0-7.375,2.386-7.375,5.932c0,6.273,15.664,12.911,30.475,12.911c21.766,0,35.288-10.11,35.288-26.388
		c0-12.895-9.01-19.484-31.1-22.749c-17.99-2.574-17.99-9.594-17.99-11.901c0-6.357,6.347-11.152,14.762-11.152
		c5.793,0,10.259,2.113,14.2,3.978c3.129,1.48,5.831,2.761,8.66,2.761c2.679,0,6.413-2.165,6.413-5.691
		c0-7.001-17.832-12.909-29.031-12.909C32,22.042,19.565,32.019,19.565,47.462z"/>
	
		<radialGradient id="SVGID_2_" cx="125.7354" cy="139.4246" r="105.0243" gradientTransform="matrix(1 0 0 -1 -0.0552 141.5913)" gradientUnits="userSpaceOnUse">
		<stop  offset="0" style="stop-color:#7ACDF3"/>
		<stop  offset="0.1311" style="stop-color:#73C8F2"/>
		<stop  offset="0.2922" style="stop-color:#61BBEA"/>
		<stop  offset="0.4689" style="stop-color:#3EA5DE"/>
		<stop  offset="0.6569" style="stop-color:#0089CD"/>
		<stop  offset="0.8518" style="stop-color:#006AB8"/>
		<stop  offset="0.8652" style="stop-color:#0068B7"/>
		<stop  offset="1" style="stop-color:#00479D"/>
	</radialGradient>
	<path fill="url(#SVGID_2_)" d="M91.686,33.09v58.896c0,9.271,0.837,12.771,9.716,12.771h10.963c0.032,0,18.639-0.253,18.639-0.253
		c24.225,0,29.316-11.801,29.316-21.697c0-9.58-5.104-13.299-8.832-16.013c-2.571-1.874-3.913-2.942-3.913-4.893
		c0-2.125,0.801-2.86,2.774-4.467c3.037-2.468,7.193-5.846,6.652-17.062c-0.488-10.051-9.369-16.464-23.178-16.742
		c-0.019,0-21.181-0.254-21.181-0.254h-12.007C92.377,23.375,91.686,28.39,91.686,33.09z M108.018,53.485
		c-1.98-2.027-2.938-4.95-2.85-8.684v-0.013c0.175-9.396,6.472-11.178,18.029-11.178c10.565,0,16.626,4.298,16.626,11.794
		c0,5.807-4.982,12.014-18.966,12.014C114.888,57.419,110.567,56.095,108.018,53.485z M105.168,81.476
		c0-4.397,0.825-7.175,2.675-9.003c2.71-2.678,8.25-3.871,17.429-3.763c8.234,0.139,18.062,2.463,18.062,12.766
		c0,8.812-11.056,12.761-22.011,12.761C107.005,94.236,105.168,87.415,105.168,81.476z"/>
	
		<radialGradient id="SVGID_3_" cx="176.1396" cy="142.3386" r="104.8345" gradientTransform="matrix(1 0 0 -1 -0.0552 141.5913)" gradientUnits="userSpaceOnUse">
		<stop  offset="0" style="stop-color:#7ACDF3"/>
		<stop  offset="0.1311" style="stop-color:#73C8F2"/>
		<stop  offset="0.2922" style="stop-color:#61BBEA"/>
		<stop  offset="0.4689" style="stop-color:#3EA5DE"/>
		<stop  offset="0.6569" style="stop-color:#0089CD"/>
		<stop  offset="0.8518" style="stop-color:#006AB8"/>
		<stop  offset="0.8652" style="stop-color:#0068B7"/>
		<stop  offset="1" style="stop-color:#00479D"/>
	</radialGradient>
	<path fill="url(#SVGID_3_)" d="M168.091,32.089v0.086l0.009,0.084c0.014,0.192,1.403,19.223,1.403,31.074
		c0,11.844-1.392,29.781-1.403,29.962l-0.009,0.091v0.091c0,4.574,0,13.093,8.431,13.093c7.674,0,7.674-9.67,7.674-13.311v-0.115
		l-0.012-0.119c-0.016-0.154-1.58-15.789-1.58-29.691c0-13.915,1.566-30.642,1.584-30.809l0.008-0.109v-0.108
		c0-2.657,0-10.739-8.176-10.739C168.091,21.566,168.091,29.487,168.091,32.089z"/>
	<g>
		<path d="M207.637,27.902h-3.767v-1.266h9.034v1.266h-3.766v10.031h-1.504V27.902H207.637z"/>
		<path d="M214.882,26.637h1.345v4.318h0.031c0.443-0.98,1.598-1.391,2.579-1.391c2.151,0,2.815,1.232,2.815,2.989v5.379h-1.344
			v-5.537c0-0.997-0.634-1.646-1.662-1.646c-1.629,0-2.422,1.094-2.422,2.564v4.62h-1.344L214.882,26.637L214.882,26.637z"/>
		<path d="M231.604,35.338c-0.363,1.804-1.66,2.785-3.496,2.785c-2.609,0-3.844-1.803-3.924-4.304c0-2.453,1.614-4.255,3.846-4.255
			c2.896,0,3.781,2.704,3.701,4.682h-6.123c-0.047,1.424,0.761,2.69,2.547,2.69c1.107,0,1.885-0.538,2.121-1.599H231.604z
			 M230.309,33.061c-0.062-1.281-1.029-2.312-2.358-2.312c-1.406,0-2.246,1.061-2.341,2.312H230.309z"/>
		<path d="M211.605,51.497c-0.174-1.614-1.25-2.31-2.801-2.31c-1.266,0-2.531,0.459-2.531,1.931c0,1.393,1.805,1.598,3.623,2.009
			c1.805,0.411,3.607,1.045,3.607,3.26c0,2.404-2.357,3.369-4.414,3.369c-2.531,0-4.667-1.232-4.667-3.986h1.423
			c0,1.899,1.584,2.722,3.293,2.722c1.358,0,2.863-0.428,2.863-2.057c0-1.551-1.807-1.82-3.607-2.215
			c-1.806-0.396-3.623-0.917-3.623-2.99c0-2.295,2.041-3.309,4.098-3.309c2.311,0,4.064,1.093,4.16,3.576H211.605z"/>
		<path d="M218.203,60.579c-0.616,1.599-1.17,2.184-2.372,2.184c-0.317,0-0.634-0.031-0.935-0.144v-1.232
			c0.254,0.079,0.521,0.189,0.791,0.189c0.555,0,0.854-0.27,1.106-0.744l0.554-1.393l-3.242-8.132h1.519l2.39,6.692h0.031
			l2.295-6.691h1.424L218.203,60.579z"/>
		<path d="M223.932,56.909c0.049,1.202,1.092,1.582,2.199,1.582c0.838,0,1.979-0.189,1.979-1.218c0-1.044-1.33-1.218-2.674-1.521
			c-1.328-0.301-2.674-0.742-2.674-2.31c0-1.646,1.629-2.325,3.053-2.325c1.806,0,3.244,0.57,3.354,2.563h-1.344
			c-0.097-1.045-1.015-1.376-1.899-1.376c-0.806,0-1.74,0.221-1.74,1.043c0,0.966,1.424,1.124,2.676,1.425
			c1.344,0.301,2.674,0.743,2.674,2.324c0,1.947-1.82,2.58-3.482,2.58c-1.835,0-3.386-0.743-3.464-2.769H223.932z"/>
		<path d="M233.093,51.307h1.63v1.187h-1.63v5.079c0,0.617,0.173,0.729,1.013,0.729h0.617v1.187h-1.027
			c-1.395,0-1.946-0.285-1.946-1.789v-5.205h-1.394v-1.187h1.394v-2.452h1.345L233.093,51.307L233.093,51.307z"/>
		<path d="M243.393,56.892c-0.363,1.804-1.66,2.785-3.496,2.785c-2.61,0-3.846-1.804-3.924-4.305c0-2.452,1.613-4.255,3.844-4.255
			c2.896,0,3.783,2.706,3.703,4.684h-6.123c-0.049,1.424,0.758,2.688,2.547,2.688c1.109,0,1.884-0.538,2.121-1.598H243.393z
			 M242.096,54.613c-0.063-1.281-1.029-2.309-2.357-2.309c-1.408,0-2.247,1.061-2.342,2.309H242.096z"/>
		<path d="M245.117,51.307h1.266v1.201h0.03c0.603-0.917,1.521-1.392,2.644-1.392c0.996,0,1.914,0.396,2.246,1.392
			c0.555-0.869,1.521-1.392,2.563-1.392c1.629,0,2.722,0.68,2.722,2.373v5.997h-1.346v-5.363c0-1.013-0.27-1.819-1.582-1.819
			c-1.299,0-2.137,0.821-2.137,2.088v5.095h-1.344v-5.363c0-1.06-0.332-1.819-1.535-1.819c-1.599,0-2.185,1.472-2.185,2.088v5.095
			h-1.344L245.117,51.307L245.117,51.307z"/>
		<path d="M259.641,56.909c0.047,1.202,1.094,1.582,2.199,1.582c0.84,0,1.977-0.189,1.977-1.218c0-1.044-1.328-1.218-2.672-1.521
			c-1.33-0.301-2.674-0.742-2.674-2.31c0-1.646,1.629-2.325,3.053-2.325c1.806,0,3.244,0.57,3.354,2.563h-1.344
			c-0.097-1.045-1.013-1.376-1.897-1.376c-0.808,0-1.74,0.221-1.74,1.043c0,0.966,1.424,1.124,2.674,1.425
			c1.345,0.301,2.673,0.743,2.673,2.324c0,1.947-1.818,2.58-3.479,2.58c-1.836,0-3.387-0.743-3.466-2.769H259.641z"/>
		<path d="M205.07,69.743h4.1c0.997,0,2.311,0,2.99,0.412c0.744,0.443,1.328,1.25,1.328,2.357c0,1.202-0.633,2.104-1.678,2.53v0.033
			c1.394,0.284,2.152,1.327,2.152,2.72c0,1.661-1.188,3.244-3.434,3.244h-5.459V69.743L205.07,69.743z M206.575,74.602h3.006
			c1.709,0,2.405-0.617,2.405-1.804c0-1.565-1.107-1.788-2.405-1.788h-3.006V74.602z M206.575,79.775h3.765
			c1.299,0,2.121-0.791,2.121-2.026c0-1.472-1.188-1.882-2.452-1.882h-3.434V79.775z"/>
		<path d="M218.395,71.391h-1.346v-1.647h1.346V71.391z M217.049,72.86h1.346v8.181h-1.346V72.86z"/>
		<path d="M225.292,72.67c2.595,0,3.972,1.885,3.972,4.289c0,2.39-1.377,4.271-3.972,4.271c-2.594,0-3.97-1.883-3.97-4.271
			C221.322,74.554,222.697,72.67,225.292,72.67z M225.292,80.043c1.408,0,2.548-1.104,2.548-3.084c0-1.994-1.14-3.102-2.548-3.102
			s-2.547,1.106-2.547,3.102C222.745,78.938,223.884,80.043,225.292,80.043z"/>
		<path d="M232.206,69.743h1.345v11.298h-1.345V69.743z"/>
		<path d="M240.447,72.67c2.597,0,3.974,1.885,3.974,4.289c0,2.39-1.377,4.271-3.974,4.271c-2.594,0-3.971-1.883-3.971-4.271
			C236.477,74.554,237.854,72.67,240.447,72.67z M240.447,80.043c1.408,0,2.549-1.104,2.549-3.084c0-1.994-1.141-3.102-2.549-3.102
			c-1.405,0-2.547,1.106-2.547,3.102C237.9,78.938,239.042,80.043,240.447,80.043z"/>
		<path d="M254.34,80.344c0,2.657-1.219,4.02-3.797,4.02c-1.534,0-3.307-0.617-3.386-2.405h1.345
			c0.062,0.981,1.232,1.328,2.119,1.328c1.757,0,2.453-1.265,2.453-3.101v-0.537h-0.031c-0.443,0.996-1.52,1.486-2.548,1.486
			c-2.437,0-3.654-1.914-3.654-4.146c0-1.929,0.95-4.319,3.78-4.319c1.029,0,1.947,0.459,2.438,1.361h0.017V72.86h1.266
			L254.34,80.344L254.34,80.344z M253.012,76.784c0-1.438-0.634-2.927-2.326-2.927c-1.725,0-2.422,1.408-2.422,2.975
			c0,1.472,0.539,3.117,2.312,3.117C252.348,79.949,253.012,78.318,253.012,76.784z"/>
		<path d="M260.859,82.133c-0.618,1.599-1.172,2.185-2.373,2.185c-0.317,0-0.635-0.031-0.936-0.144V82.94
			c0.254,0.078,0.523,0.188,0.791,0.188c0.555,0,0.854-0.269,1.108-0.742l0.554-1.395l-3.244-8.132h1.52l2.39,6.693h0.03
			l2.297-6.693h1.423L260.859,82.133z"/>
		<path d="M205.137,91.298h1.502v11.298h-1.502V91.298z"/>
		<path d="M209.581,94.414h1.267v1.298h0.031c0.568-1.013,1.486-1.486,2.657-1.486c2.151,0,2.817,1.233,2.817,2.99v5.38h-1.347
			v-5.538c0-0.996-0.633-1.646-1.661-1.646c-1.63,0-2.421,1.093-2.421,2.564v4.62h-1.345L209.581,94.414L209.581,94.414z"/>
		<path d="M219.833,100.016c0.048,1.203,1.093,1.582,2.2,1.582c0.838,0,1.979-0.189,1.979-1.219c0-1.045-1.33-1.219-2.675-1.519
			c-1.328-0.301-2.675-0.745-2.675-2.312c0-1.646,1.63-2.325,3.054-2.325c1.804,0,3.243,0.568,3.354,2.562h-1.346
			c-0.095-1.043-1.013-1.377-1.897-1.377c-0.806,0-1.741,0.223-1.741,1.046c0,0.965,1.426,1.124,2.676,1.423
			c1.344,0.302,2.674,0.743,2.674,2.326c0,1.945-1.819,2.579-3.481,2.579c-1.835,0-3.386-0.743-3.464-2.769h1.343V100.016z"/>
		<path d="M229.421,94.414h1.63v1.188h-1.63v5.078c0,0.616,0.175,0.729,1.013,0.729h0.617v1.188h-1.027
			c-1.393,0-1.945-0.286-1.945-1.789v-5.204h-1.395v-1.188h1.395v-2.451h1.344L229.421,94.414L229.421,94.414z"/>
		<path d="M234.596,92.942h-1.346v-1.646h1.346V92.942z M233.25,94.414h1.346v8.182h-1.346V94.414z"/>
		<path d="M239.184,94.414h1.631v1.188h-1.631v5.078c0,0.616,0.174,0.729,1.012,0.729h0.619v1.188h-1.028
			c-1.394,0-1.947-0.286-1.947-1.789v-5.204h-1.394v-1.188h1.394v-2.451h1.345V94.414L239.184,94.414z"/>
		<path d="M249.704,102.595h-1.265v-1.299h-0.032c-0.57,1.013-1.487,1.487-2.658,1.487c-2.151,0-2.815-1.234-2.815-2.991v-5.379
			h1.346v5.539c0,0.996,0.632,1.646,1.66,1.646c1.631,0,2.42-1.093,2.42-2.562v-4.621h1.346L249.704,102.595L249.704,102.595z"/>
		<path d="M254.23,94.414h1.629v1.188h-1.629v5.078c0,0.616,0.172,0.729,1.012,0.729h0.617v1.188h-1.029
			c-1.393,0-1.946-0.286-1.946-1.789v-5.204h-1.392v-1.188h1.392v-2.451h1.347V94.414L254.23,94.414z"/>
		<path d="M264.957,100c-0.364,1.804-1.66,2.784-3.498,2.784c-2.609,0-3.843-1.804-3.923-4.304c0-2.452,1.614-4.256,3.845-4.256
			c2.895,0,3.781,2.705,3.703,4.684h-6.125c-0.046,1.423,0.76,2.689,2.548,2.689c1.108,0,1.884-0.539,2.12-1.599L264.957,100
			L264.957,100z M263.659,97.722c-0.063-1.282-1.029-2.312-2.356-2.312c-1.408,0-2.248,1.062-2.344,2.312H263.659z"/>
	</g>
</g>
</svg>
